<svg width="203" height="91" viewBox="0 0 203 91" fill="none" xmlns="http://www.w3.org/2000/svg">
<g clip-path="url(#clip0_8_517)">
<path d="M197 0H6C2.68629 0 0 2.68629 0 6V85C0 88.3137 2.68629 91 6 91H197C200.314 91 203 88.3137 203 85V6C203 2.68629 200.314 0 197 0Z" fill="white"/>
<mask id="mask0_8_517" style="mask-type:luminance" maskUnits="userSpaceOnUse" x="25" y="23" width="44" height="45">
<path d="M69 23.5H25V67.5H69V23.5Z" fill="white"/>
</mask>
<g mask="url(#mask0_8_517)">
<path d="M47 67.5001C34.8721 67.5001 25 57.628 25 45.5001C25 40.1397 26.9551 34.962 30.5 30.9444C30.9727 30.4073 31.7891 30.3536 32.3262 30.8263C32.8633 31.2989 32.917 32.1153 32.4443 32.6524C29.3184 36.1974 27.5889 40.7628 27.5889 45.4893C27.5889 56.1886 36.3008 64.9005 47 64.9005C57.6992 64.9005 66.4111 56.1886 66.4111 45.4893C66.4111 34.7901 57.6992 26.089 47 26.089C44.0674 26.0782 41.1777 26.7442 38.5459 28.0226C37.9014 28.3341 37.1279 28.0655 36.8164 27.421C36.5049 26.7765 36.7734 26.003 37.418 25.6915C40.4043 24.2413 43.6807 23.4893 47 23.5001C59.1279 23.5001 69 33.3722 69 45.5001C69 57.628 59.1279 67.5001 47 67.5001Z" fill="#36496D"/>
<path d="M62.5332 45.5C62.5332 54.0723 55.583 61.0332 47 61.0332C38.417 61.0332 31.4668 54.0723 31.4668 45.5C31.4668 36.9277 38.4277 29.9668 47 29.9668C55.5723 29.9668 62.5332 36.9277 62.5332 45.5Z" fill="#E3A6B6"/>
<path d="M47 62.3223C37.7187 62.3223 30.1777 54.7812 30.1777 45.5C30.1777 36.2187 37.7187 28.6777 47 28.6777C56.2812 28.6777 63.8223 36.2187 63.8223 45.5C63.8223 54.7812 56.2812 62.3223 47 62.3223ZM47 31.2666C39.1475 31.2666 32.7666 37.6475 32.7666 45.5C32.7666 53.3525 39.1475 59.7334 47 59.7334C54.8525 59.7334 61.2334 53.3418 61.2334 45.5C61.2334 37.6582 54.8525 31.2666 47 31.2666Z" fill="#36496D"/>
<path d="M46.5813 50.0012C45.6359 50.0012 44.7336 49.6252 44.0568 48.9592L40.5764 45.468C40.0715 44.9631 40.0715 44.1467 40.5764 43.6418C41.0813 43.1369 41.8977 43.1369 42.4025 43.6418L45.8938 47.133C46.2805 47.509 46.8928 47.509 47.2688 47.133L52.6184 41.7727C53.1232 41.2678 53.9397 41.2678 54.4445 41.7727C54.9494 42.2775 54.9494 43.0939 54.4445 43.5988L49.1057 48.9592C48.4397 49.6252 47.5266 50.0012 46.5813 50.0012Z" fill="#36496D"/>
</g>
<path d="M96.296 43L92.6 36.472H91.016V43H87.656V26.248H93.944C95.24 26.248 96.344 26.48 97.256 26.944C98.168 27.392 98.848 28.008 99.296 28.792C99.76 29.56 99.992 30.424 99.992 31.384C99.992 32.488 99.672 33.488 99.032 34.384C98.392 35.264 97.44 35.872 96.176 36.208L100.184 43H96.296ZM91.016 33.952H93.824C94.736 33.952 95.416 33.736 95.864 33.304C96.312 32.856 96.536 32.24 96.536 31.456C96.536 30.688 96.312 30.096 95.864 29.68C95.416 29.248 94.736 29.032 93.824 29.032H91.016V33.952ZM106.391 26.248V43H103.031V26.248H106.391ZM115.567 26.248C117.327 26.248 118.871 26.592 120.199 27.28C121.543 27.968 122.575 28.952 123.295 30.232C124.031 31.496 124.399 32.968 124.399 34.648C124.399 36.328 124.031 37.8 123.295 39.064C122.575 40.312 121.543 41.28 120.199 41.968C118.871 42.656 117.327 43 115.567 43H109.711V26.248H115.567ZM115.447 40.144C117.207 40.144 118.567 39.664 119.527 38.704C120.487 37.744 120.967 36.392 120.967 34.648C120.967 32.904 120.487 31.544 119.527 30.568C118.567 29.576 117.207 29.08 115.447 29.08H113.071V40.144H115.447ZM134.69 43.168C133.122 43.168 131.682 42.8 130.37 42.064C129.058 41.328 128.018 40.312 127.25 39.016C126.482 37.704 126.098 36.224 126.098 34.576C126.098 32.944 126.482 31.48 127.25 30.184C128.018 28.872 129.058 27.848 130.37 27.112C131.682 26.376 133.122 26.008 134.69 26.008C136.274 26.008 137.714 26.376 139.01 27.112C140.322 27.848 141.354 28.872 142.106 30.184C142.874 31.48 143.258 32.944 143.258 34.576C143.258 36.224 142.874 37.704 142.106 39.016C141.354 40.312 140.322 41.328 139.01 42.064C137.698 42.8 136.258 43.168 134.69 43.168ZM134.69 40.168C135.698 40.168 136.586 39.944 137.354 39.496C138.122 39.032 138.722 38.376 139.154 37.528C139.586 36.68 139.802 35.696 139.802 34.576C139.802 33.456 139.586 32.48 139.154 31.648C138.722 30.8 138.122 30.152 137.354 29.704C136.586 29.256 135.698 29.032 134.69 29.032C133.682 29.032 132.786 29.256 132.002 29.704C131.234 30.152 130.634 30.8 130.202 31.648C129.77 32.48 129.554 33.456 129.554 34.576C129.554 35.696 129.77 36.68 130.202 37.528C130.634 38.376 131.234 39.032 132.002 39.496C132.786 39.944 133.682 40.168 134.69 40.168Z" fill="#191919"/>
<path d="M89.794 61.126C89.206 61.126 88.6787 61.028 88.212 60.832C87.7453 60.6267 87.3767 60.3467 87.106 59.992C86.8353 59.628 86.686 59.2127 86.658 58.746H87.974C88.0113 59.1287 88.1887 59.4413 88.506 59.684C88.8327 59.9267 89.2573 60.048 89.78 60.048C90.2653 60.048 90.648 59.9407 90.928 59.726C91.208 59.5113 91.348 59.2407 91.348 58.914C91.348 58.578 91.1987 58.3307 90.9 58.172C90.6013 58.004 90.1393 57.8407 89.514 57.682C88.9447 57.5327 88.478 57.3833 88.114 57.234C87.7593 57.0753 87.4513 56.8467 87.19 56.548C86.938 56.24 86.812 55.8387 86.812 55.344C86.812 54.952 86.9287 54.5927 87.162 54.266C87.3953 53.9393 87.7267 53.6827 88.156 53.496C88.5853 53.3 89.0753 53.202 89.626 53.202C90.4753 53.202 91.1613 53.4167 91.684 53.846C92.2067 54.2753 92.4867 54.8633 92.524 55.61H91.25C91.222 55.2087 91.0587 54.8867 90.76 54.644C90.4707 54.4013 90.0787 54.28 89.584 54.28C89.1267 54.28 88.7627 54.378 88.492 54.574C88.2213 54.77 88.086 55.0267 88.086 55.344C88.086 55.596 88.1653 55.806 88.324 55.974C88.492 56.1327 88.6973 56.2633 88.94 56.366C89.192 56.4593 89.5373 56.5667 89.976 56.688C90.5267 56.8373 90.9747 56.9867 91.32 57.136C91.6653 57.276 91.9593 57.4907 92.202 57.78C92.454 58.0693 92.5847 58.4473 92.594 58.914C92.594 59.334 92.4773 59.712 92.244 60.048C92.0107 60.384 91.6793 60.65 91.25 60.846C90.83 61.0327 90.3447 61.126 89.794 61.126ZM101.196 53.328V61H99.9225V59.866C99.6798 60.258 99.3391 60.566 98.9005 60.79C98.4711 61.0047 97.9951 61.112 97.4725 61.112C96.8751 61.112 96.3385 60.9907 95.8625 60.748C95.3865 60.496 95.0085 60.1227 94.7285 59.628C94.4578 59.1333 94.3225 58.5313 94.3225 57.822V53.328H95.5825V57.654C95.5825 58.41 95.7738 58.9933 96.1565 59.404C96.5391 59.8053 97.0618 60.006 97.7245 60.006C98.4058 60.006 98.9425 59.796 99.3345 59.376C99.7265 58.956 99.9225 58.3447 99.9225 57.542V53.328H101.196ZM106.064 61.126C105.476 61.126 104.948 61.028 104.482 60.832C104.015 60.6267 103.646 60.3467 103.376 59.992C103.105 59.628 102.956 59.2127 102.928 58.746H104.244C104.281 59.1287 104.458 59.4413 104.776 59.684C105.102 59.9267 105.527 60.048 106.05 60.048C106.535 60.048 106.918 59.9407 107.198 59.726C107.478 59.5113 107.618 59.2407 107.618 58.914C107.618 58.578 107.468 58.3307 107.17 58.172C106.871 58.004 106.409 57.8407 105.784 57.682C105.214 57.5327 104.748 57.3833 104.384 57.234C104.029 57.0753 103.721 56.8467 103.46 56.548C103.208 56.24 103.082 55.8387 103.082 55.344C103.082 54.952 103.198 54.5927 103.432 54.266C103.665 53.9393 103.996 53.6827 104.426 53.496C104.855 53.3 105.345 53.202 105.896 53.202C106.745 53.202 107.431 53.4167 107.954 53.846C108.476 54.2753 108.756 54.8633 108.794 55.61H107.52C107.492 55.2087 107.328 54.8867 107.03 54.644C106.74 54.4013 106.348 54.28 105.854 54.28C105.396 54.28 105.032 54.378 104.762 54.574C104.491 54.77 104.356 55.0267 104.356 55.344C104.356 55.596 104.435 55.806 104.594 55.974C104.762 56.1327 104.967 56.2633 105.21 56.366C105.462 56.4593 105.807 56.5667 106.246 56.688C106.796 56.8373 107.244 56.9867 107.59 57.136C107.935 57.276 108.229 57.4907 108.472 57.78C108.724 58.0693 108.854 58.4473 108.864 58.914C108.864 59.334 108.747 59.712 108.514 60.048C108.28 60.384 107.949 60.65 107.52 60.846C107.1 61.0327 106.614 61.126 106.064 61.126ZM117.662 56.87C117.662 57.1127 117.648 57.3693 117.62 57.64H111.488C111.535 58.396 111.791 58.9887 112.258 59.418C112.734 59.838 113.308 60.048 113.98 60.048C114.531 60.048 114.988 59.922 115.352 59.67C115.725 59.4087 115.987 59.0633 116.136 58.634H117.508C117.303 59.3713 116.892 59.9733 116.276 60.44C115.66 60.8973 114.895 61.126 113.98 61.126C113.252 61.126 112.599 60.9627 112.02 60.636C111.451 60.3093 111.003 59.8473 110.676 59.25C110.349 58.6433 110.186 57.9433 110.186 57.15C110.186 56.3567 110.345 55.6613 110.662 55.064C110.979 54.4667 111.423 54.0093 111.992 53.692C112.571 53.3653 113.233 53.202 113.98 53.202C114.708 53.202 115.352 53.3607 115.912 53.678C116.472 53.9953 116.901 54.434 117.2 54.994C117.508 55.5447 117.662 56.17 117.662 56.87ZM116.346 56.604C116.346 56.1187 116.239 55.7033 116.024 55.358C115.809 55.0033 115.515 54.7373 115.142 54.56C114.778 54.3733 114.372 54.28 113.924 54.28C113.28 54.28 112.729 54.4853 112.272 54.896C111.824 55.3067 111.567 55.876 111.502 56.604H116.346ZM120.618 54.742C120.87 54.3033 121.243 53.9393 121.738 53.65C122.242 53.3513 122.825 53.202 123.488 53.202C124.169 53.202 124.785 53.3653 125.336 53.692C125.896 54.0187 126.334 54.4807 126.652 55.078C126.969 55.666 127.128 56.352 127.128 57.136C127.128 57.9107 126.969 58.6013 126.652 59.208C126.334 59.8147 125.896 60.286 125.336 60.622C124.785 60.958 124.169 61.126 123.488 61.126C122.834 61.126 122.256 60.9813 121.752 60.692C121.257 60.3933 120.879 60.0247 120.618 59.586V64.64H119.344V53.328H120.618V54.742ZM125.826 57.136C125.826 56.5573 125.709 56.0533 125.476 55.624C125.242 55.1947 124.925 54.868 124.524 54.644C124.132 54.42 123.698 54.308 123.222 54.308C122.755 54.308 122.321 54.4247 121.92 54.658C121.528 54.882 121.21 55.2133 120.968 55.652C120.734 56.0813 120.618 56.5807 120.618 57.15C120.618 57.7287 120.734 58.2373 120.968 58.676C121.21 59.1053 121.528 59.4367 121.92 59.67C122.321 59.894 122.755 60.006 123.222 60.006C123.698 60.006 124.132 59.894 124.524 59.67C124.925 59.4367 125.242 59.1053 125.476 58.676C125.709 58.2373 125.826 57.724 125.826 57.136ZM130.359 54.378V58.9C130.359 59.2733 130.438 59.5393 130.597 59.698C130.755 59.8473 131.031 59.922 131.423 59.922H132.361V61H131.213C130.503 61 129.971 60.8367 129.617 60.51C129.262 60.1833 129.085 59.6467 129.085 58.9V54.378H128.091V53.328H129.085V51.396H130.359V53.328H132.361V54.378H130.359ZM137.25 61.126C136.532 61.126 135.878 60.9627 135.29 60.636C134.712 60.3093 134.254 59.8473 133.918 59.25C133.592 58.6433 133.428 57.9433 133.428 57.15C133.428 56.366 133.596 55.6753 133.932 55.078C134.278 54.4713 134.744 54.0093 135.332 53.692C135.92 53.3653 136.578 53.202 137.306 53.202C138.034 53.202 138.692 53.3653 139.28 53.692C139.868 54.0093 140.33 54.4667 140.666 55.064C141.012 55.6613 141.184 56.3567 141.184 57.15C141.184 57.9433 141.007 58.6433 140.652 59.25C140.307 59.8473 139.836 60.3093 139.238 60.636C138.641 60.9627 137.978 61.126 137.25 61.126ZM137.25 60.006C137.708 60.006 138.137 59.8987 138.538 59.684C138.94 59.4693 139.262 59.1473 139.504 58.718C139.756 58.2887 139.882 57.766 139.882 57.15C139.882 56.534 139.761 56.0113 139.518 55.582C139.276 55.1527 138.958 54.8353 138.566 54.63C138.174 54.4153 137.75 54.308 137.292 54.308C136.826 54.308 136.396 54.4153 136.004 54.63C135.622 54.8353 135.314 55.1527 135.08 55.582C134.847 56.0113 134.73 56.534 134.73 57.15C134.73 57.7753 134.842 58.3027 135.066 58.732C135.3 59.1613 135.608 59.4833 135.99 59.698C136.373 59.9033 136.793 60.006 137.25 60.006Z" fill="#868686"/>
</g>
<defs>
<clipPath id="clip0_8_517">
<rect width="203" height="91" fill="white"/>
</clipPath>
</defs>
</svg>
