<svg width="73" height="36" viewBox="0 0 73 36" fill="none" xmlns="http://www.w3.org/2000/svg">
<path d="M10.296 26L6.6 19.472H5.016V26H1.656V9.248H7.944C9.24 9.248 10.344 9.48 11.256 9.944C12.168 10.392 12.848 11.008 13.296 11.792C13.76 12.56 13.992 13.424 13.992 14.384C13.992 15.488 13.672 16.488 13.032 17.384C12.392 18.264 11.44 18.872 10.176 19.208L14.184 26H10.296ZM5.016 16.952H7.824C8.736 16.952 9.416 16.736 9.864 16.304C10.312 15.856 10.536 15.24 10.536 14.456C10.536 13.688 10.312 13.096 9.864 12.68C9.416 12.248 8.736 12.032 7.824 12.032H5.016V16.952ZM20.391 9.248V26H17.031V9.248H20.391ZM29.5667 9.248C31.3267 9.248 32.8707 9.592 34.1987 10.28C35.5427 10.968 36.5747 11.952 37.2947 13.232C38.0307 14.496 38.3987 15.968 38.3987 17.648C38.3987 19.328 38.0307 20.8 37.2947 22.064C36.5747 23.312 35.5427 24.28 34.1987 24.968C32.8707 25.656 31.3267 26 29.5667 26H23.7107V9.248H29.5667ZM29.4467 23.144C31.2067 23.144 32.5667 22.664 33.5267 21.704C34.4867 20.744 34.9667 19.392 34.9667 17.648C34.9667 15.904 34.4867 14.544 33.5267 13.568C32.5667 12.576 31.2067 12.08 29.4467 12.08H27.0707V23.144H29.4467ZM48.6898 26.168C47.1218 26.168 45.6818 25.8 44.3698 25.064C43.0578 24.328 42.0178 23.312 41.2498 22.016C40.4818 20.704 40.0978 19.224 40.0978 17.576C40.0978 15.944 40.4818 14.48 41.2498 13.184C42.0178 11.872 43.0578 10.848 44.3698 10.112C45.6818 9.376 47.1218 9.008 48.6898 9.008C50.2738 9.008 51.7138 9.376 53.0098 10.112C54.3218 10.848 55.3538 11.872 56.1058 13.184C56.8738 14.48 57.2578 15.944 57.2578 17.576C57.2578 19.224 56.8738 20.704 56.1058 22.016C55.3538 23.312 54.3218 24.328 53.0098 25.064C51.6978 25.8 50.2578 26.168 48.6898 26.168ZM48.6898 23.168C49.6978 23.168 50.5858 22.944 51.3538 22.496C52.1218 22.032 52.7218 21.376 53.1538 20.528C53.5858 19.68 53.8018 18.696 53.8018 17.576C53.8018 16.456 53.5858 15.48 53.1538 14.648C52.7218 13.8 52.1218 13.152 51.3538 12.704C50.5858 12.256 49.6978 12.032 48.6898 12.032C47.6818 12.032 46.7858 12.256 46.0018 12.704C45.2338 13.152 44.6338 13.8 44.2018 14.648C43.7698 15.48 43.5538 16.456 43.5538 17.576C43.5538 18.696 43.7698 19.68 44.2018 20.528C44.6338 21.376 45.2338 22.032 46.0018 22.496C46.7858 22.944 47.6818 23.168 48.6898 23.168ZM65.5416 26.168C64.3736 26.168 63.3176 25.968 62.3736 25.568C61.4456 25.168 60.7096 24.592 60.1656 23.84C59.6216 23.088 59.3416 22.2 59.3256 21.176H62.9256C62.9736 21.864 63.2136 22.408 63.6456 22.808C64.0936 23.208 64.7016 23.408 65.4696 23.408C66.2536 23.408 66.8696 23.224 67.3176 22.856C67.7656 22.472 67.9896 21.976 67.9896 21.368C67.9896 20.872 67.8376 20.464 67.5336 20.144C67.2296 19.824 66.8456 19.576 66.3816 19.4C65.9336 19.208 65.3096 19 64.5096 18.776C63.4216 18.456 62.5336 18.144 61.8456 17.84C61.1736 17.52 60.5896 17.048 60.0936 16.424C59.6136 15.784 59.3736 14.936 59.3736 13.88C59.3736 12.888 59.6216 12.024 60.1176 11.288C60.6136 10.552 61.3096 9.992 62.2056 9.608C63.1016 9.208 64.1256 9.008 65.2776 9.008C67.0056 9.008 68.4056 9.432 69.4776 10.28C70.5656 11.112 71.1656 12.28 71.2776 13.784H67.5816C67.5496 13.208 67.3016 12.736 66.8376 12.368C66.3896 11.984 65.7896 11.792 65.0376 11.792C64.3816 11.792 63.8536 11.96 63.4536 12.296C63.0696 12.632 62.8776 13.12 62.8776 13.76C62.8776 14.208 63.0216 14.584 63.3096 14.888C63.6136 15.176 63.9816 15.416 64.4136 15.608C64.8616 15.784 65.4856 15.992 66.2856 16.232C67.3736 16.552 68.2616 16.872 68.9496 17.192C69.6376 17.512 70.2296 17.992 70.7256 18.632C71.2216 19.272 71.4696 20.112 71.4696 21.152C71.4696 22.048 71.2376 22.88 70.7736 23.648C70.3096 24.416 69.6296 25.032 68.7336 25.496C67.8376 25.944 66.7736 26.168 65.5416 26.168Z" fill="white"/>
</svg>
